PathFileType	4	(X/Y/Z)	c:/Users/goper/Files/vsCode/490R/osim_files/C15/C15_Static02.trc
DataRate	CameraRate	NumFrames	NumMarkers	Units                	OrigDataRate	OrigDataStartFrame	OrigNumFrames
250.00	250.00	9	36	mm	250.0	128	1020
                Frame#	Time	LPSIS			LASIS			LTH1			LTH2			LTH3			LTH4			LLFE			LMFE			LSH1			LSH2			LSH3			LSH4			LLMAL			LMMAL			LCAL			LMTP5			LTOE			LMTP1			RPSIS			RASIS			RTH1			RTH2			RTH3			RTH4			RLFE			RMFE			RSH1			RSH2			RSH3			RSH4			RLMAL			RMMAL			RCAL			RMTP1			RTOE			RMTP5		
		X1	Y1	Z1	X2	Y2	Z2	X3	Y3	Z3	X4	Y4	Z4	X5	Y5	Z5	X6	Y6	Z6	X7	Y7	Z7	X8	Y8	Z8	X9	Y9	Z9	X10	Y10	Z10	X11	Y11	Z11	X12	Y12	Z12	X13	Y13	Z13	X14	Y14	Z14	X15	Y15	Z15	X16	Y16	Z16	X17	Y17	Z17	X18	Y18	Z18	X19	Y19	Z19	X20	Y20	Z20	X21	Y21	Z21	X22	Y22	Z22	X23	Y23	Z23	X24	Y24	Z24	X25	Y25	Z25	X26	Y26	Z26	X27	Y27	Z27	X28	Y28	Z28	X29	Y29	Z29	X30	Y30	Z30	X31	Y31	Z31	X32	Y32	Z32	X33	Y33	Z33	X34	Y34	Z34	X35	Y35	Z35	X36	Y36	Z36

128	0.50800	-441.71014	1028.61768	406.75269	-279.88159	1010.00452	331.73309	-364.97144	635.07355	252.61134	-368.34012	587.65222	265.81241	-312.94492	639.38849	253.57217	-314.04547	594.03833	259.94846	-347.44891	501.32584	278.15002	-339.48801	477.14160	396.59335	-415.60452	395.96820	260.84991	-418.41183	353.44864	251.76968	-353.86594	389.18140	256.79721	-364.09882	346.10651	247.91064	-403.43286	84.69054	288.39227	-383.18604	103.83932	379.07059	-464.04123	57.78223	331.57187	-280.91620	36.08733	263.34308	-224.80583	59.44466	326.31223	-260.51740	39.17908	381.41650	-432.24011	1029.59094	526.57910	-274.21011	1006.90686	582.81866	-343.16391	642.77734	654.43762	-343.17987	595.87335	648.96692	-283.73019	638.22394	640.88287	-291.74384	592.01965	640.31311	-338.27560	498.15930	626.31610	-355.52930	474.44769	510.32053	-426.78778	398.99197	651.27704	-428.18561	355.80017	658.16937	-364.99411	388.63266	653.02118	-376.54181	348.31656	660.73413	-416.47525	84.28606	617.61249	-387.99939	102.90183	529.56598	-477.25119	58.04932	572.68317	-273.58682	37.90406	534.98102	-239.39844	56.06353	588.37073	-299.50613	31.05146	653.92590
129	0.51200	-441.72046	1028.63281	406.71277	-279.89871	1009.98737	331.74500	-364.98856	635.09943	252.61208	-368.33365	587.68256	265.77536	-312.93649	639.38977	253.57874	-314.04053	594.02802	259.96732	-347.43365	501.33765	278.13620	-339.48285	477.12939	396.56378	-415.58524	396.01294	260.83618	-418.39600	353.46057	251.74844	-353.84210	389.19833	256.80469	-364.08313	346.08884	247.91447	-403.43237	84.69458	288.39841	-383.20746	103.86176	379.06778	-464.06122	57.82161	331.50983	-280.92581	36.11314	263.33438	-224.80544	59.45025	326.31674	-260.56741	39.17342	381.42719	-432.21640	1029.57019	526.50977	-274.17419	1006.92548	582.80646	-343.16153	642.77350	654.41882	-343.18710	595.87042	648.93011	-283.69064	638.23962	640.87170	-291.76965	592.05151	640.30151	-338.24014	498.17548	626.30127	-355.51105	474.45892	510.32050	-426.77881	398.98877	651.25439	-428.16464	355.81311	658.15082	-365.27609	388.52448	652.98218	-376.53088	348.34012	660.72150	-416.48398	84.28381	617.58051	-387.96207	102.90785	529.58386	-477.27829	58.05956	572.63977	-273.56400	37.90527	535.00043	-239.40131	56.09093	588.38763	-299.49402	31.04896	653.92432
130	0.51600	-441.72241	1028.61780	406.68839	-279.88837	1010.02356	331.70993	-365.02264	635.12286	252.59593	-367.41092	588.39044	264.97589	-312.91992	639.41791	253.57016	-314.03415	594.06299	259.97495	-347.45053	501.34039	278.13293	-339.44635	477.11560	396.55429	-415.53436	395.84970	261.02982	-418.39502	353.47079	251.74129	-353.81396	389.25070	256.80136	-364.05493	346.11310	247.90353	-403.42596	84.71580	288.39822	-383.23080	103.86042	379.05841	-464.05869	57.78155	331.51590	-281.03363	35.93703	263.46350	-224.81378	59.47269	326.31155	-260.57233	39.19019	381.42587	-432.24506	1029.58289	526.47314	-274.21725	1006.91907	582.77466	-343.18362	642.77283	654.37347	-343.22556	595.89746	648.90088	-283.73563	638.26422	640.86987	-291.78842	592.05151	640.29639	-338.29803	498.15366	626.23743	-355.51215	474.45126	510.29492	-426.81018	398.98297	651.21545	-428.21454	355.82788	658.11993	-365.30331	388.55991	652.94598	-376.54953	348.35306	660.72028	-416.53091	84.26337	617.54865	-387.94974	102.91980	529.57538	-477.32251	58.06516	572.62061	-273.57404	37.95508	534.99896	-239.40427	56.10033	588.38605	-299.51974	31.06408	653.90643
131	0.52000	-441.72482	1028.61694	406.65723	-279.87537	1010.03815	331.68964	-364.97458	635.12927	252.58641	-367.35745	588.43121	264.93652	-312.90552	639.42487	253.56158	-314.03967	594.03033	259.96359	-347.43329	501.33649	278.11713	-339.43115	477.09335	396.52570	-415.55331	395.88248	261.03940	-418.37814	353.47467	251.74138	-353.81699	389.25436	256.82474	-364.02576	346.11804	247.91771	-403.42886	84.71764	288.39706	-383.21191	103.85002	379.07349	-464.08905	57.81004	331.53134	-281.01672	35.93103	263.46924	-224.82780	59.47614	326.33899	-260.56467	39.19719	381.42493	-432.23938	1029.56409	526.42566	-274.19482	1006.93353	582.76740	-343.20276	642.75873	654.34515	-343.25504	595.89490	648.88763	-283.73691	638.25885	640.85419	-291.79715	592.03308	640.29712	-338.29391	498.10010	626.21021	-355.48734	474.45743	510.27979	-426.81006	398.96964	651.19965	-428.23090	355.83566	658.10938	-364.99121	388.66867	653.02179	-376.55170	348.35297	660.71332	-416.52322	84.25092	617.57648	-387.95306	102.91994	529.58221	-477.35571	58.07404	572.60431	-273.58115	37.96674	535.03497	-239.42862	56.08934	588.40295	-299.51328	31.06346	653.91736
132	0.52400	-441.73706	1028.61560	406.64032	-279.90588	1010.03735	331.69516	-365.01013	635.14313	252.58203	-367.45535	588.42596	265.03754	-312.88696	639.44409	253.57637	-313.98486	594.05811	259.97891	-347.43561	501.32413	278.11172	-339.43863	477.08853	396.54971	-415.61304	396.05786	260.81961	-418.36710	353.47269	251.74080	-353.80743	389.23959	256.81815	-363.98911	346.14209	247.91423	-403.41672	84.72628	288.39874	-383.24838	103.84835	379.07034	-464.08710	57.78009	331.52026	-280.91339	36.11652	263.33932	-224.81413	59.47210	326.34595	-260.56390	39.19058	381.45422	-432.24951	1029.55042	526.39832	-274.22266	1006.92926	582.76569	-343.20554	642.74005	654.35010	-343.23105	595.85883	648.85815	-283.73532	638.24225	640.85706	-291.77325	592.04620	640.29907	-338.26828	498.10458	626.25195	-355.46899	474.45312	510.26517	-426.77228	398.95499	651.20087	-428.18967	355.82858	658.10236	-364.96921	388.68390	653.04633	-376.55258	348.34195	660.72308	-416.53757	84.21433	617.55450	-387.96307	102.93709	529.58032	-477.30090	58.04140	572.61505	-273.55347	37.96999	535.03284	-239.42555	56.09568	588.41467	-299.52945	31.05885	653.93475
133	0.52800	-441.72922	1028.61230	406.61481	-279.86041	1010.04248	331.65695	-364.97836	635.14392	252.57344	-367.41687	588.41827	265.01620	-312.87482	639.45062	253.53954	-313.97052	594.08527	259.95673	-347.41187	501.32324	278.09277	-339.39545	477.08734	396.52750	-415.57343	396.01837	260.81674	-418.34515	353.44159	251.72333	-353.77911	389.26562	256.80676	-363.95483	346.13556	247.88033	-403.42996	84.70278	288.40536	-383.21436	103.84025	379.07654	-464.09308	57.75650	331.55920	-280.90512	36.10905	263.33273	-224.77997	59.47200	326.33530	-260.53574	39.17863	381.44232	-432.22485	1029.54163	526.37311	-274.18866	1006.90668	582.71973	-343.15604	642.73712	654.33685	-343.18155	595.84973	648.85883	-283.71054	638.23700	640.86420	-291.74963	592.00903	640.29431	-338.25784	498.05692	626.22443	-355.43820	474.44675	510.24643	-426.74866	398.95602	651.18762	-428.16266	355.79999	658.12201	-364.93695	388.66379	653.01904	-376.50989	348.32816	660.71417	-416.50165	84.18440	617.56183	-387.91989	102.93903	529.57202	-477.24200	57.99811	572.62061	-273.52484	37.97150	535.03723	-239.40607	56.08084	588.42383	-299.51395	31.02079	653.93567
134	0.53200	-441.72015	1028.62073	406.61679	-279.87976	1010.01782	331.63437	-364.98788	635.12543	252.57347	-367.39307	588.41779	264.97095	-312.85788	639.42151	253.53183	-313.99692	594.03510	259.94427	-347.38605	501.30527	278.07962	-339.38922	477.04471	396.52167	-415.55475	396.01019	260.80325	-418.32690	353.43689	251.71999	-353.78714	389.26447	256.79379	-363.95334	346.12726	247.86574	-403.40112	84.71441	288.40155	-383.18347	103.80215	379.07080	-464.07925	57.71297	331.57037	-280.90015	36.08342	263.34482	-224.79813	59.45244	326.34180	-260.54684	39.14988	381.43872	-432.25726	1029.56775	526.36737	-274.15970	1006.88745	582.70721	-343.15936	642.71088	654.31201	-343.14505	595.81250	648.88489	-283.71014	638.20526	640.85040	-291.76450	591.98364	640.28577	-338.25937	498.00650	626.24402	-355.42297	474.44150	510.24060	-426.68561	398.92966	651.19659	-428.12283	355.79010	658.13696	-364.96118	388.60312	653.01599	-376.50925	348.29538	660.71289	-416.46069	84.18798	617.56403	-387.91830	102.91900	529.57739	-477.20343	57.97968	572.66107	-273.54080	37.94708	535.03357	-239.38361	56.05690	588.43048	-299.49985	30.99197	653.93646
135	0.53600	-441.71851	1028.62537	406.63007	-279.90543	1009.98712	331.61328	-364.96811	635.10406	252.54689	-367.40442	588.35455	264.93649	-312.87808	639.39337	253.51398	-313.99524	594.00415	259.93246	-347.38568	501.30045	278.07166	-339.38058	477.04285	396.52536	-415.53430	395.99228	260.77649	-418.31442	353.39767	251.71364	-353.75168	389.19037	256.78329	-363.93137	346.10852	247.87111	-403.39127	84.69794	288.38773	-383.20682	103.78933	379.10834	-464.06134	57.69901	331.61310	-280.89001	36.07422	263.35489	-224.77165	59.42747	326.34091	-260.53522	39.13695	381.44589	-432.24960	1029.57825	526.35760	-274.19049	1006.86304	582.69128	-343.14545	642.70880	654.32855	-343.15121	595.82025	648.89929	-283.74445	638.16089	640.85022	-291.78159	591.95795	640.27661	-338.27942	497.97125	626.24994	-355.40146	474.43634	510.23682	-426.69162	398.92487	651.19678	-428.15015	355.77167	658.13782	-364.99042	388.58194	653.03461	-376.54404	348.27142	660.72284	-416.48044	84.17271	617.56763	-387.91061	102.91946	529.57806	-477.20453	57.97317	572.71161	-273.56262	37.87581	535.04395	-239.45885	55.99854	588.46338	-299.51059	30.96812	653.95807
136	0.54000	-441.69586	1028.62805	406.62292	-279.89682	1009.96307	331.56299	-364.95703	635.08215	252.52225	-367.37921	588.32147	264.90964	-312.86938	639.37823	253.48969	-313.97864	593.99945	259.90134	-347.37433	501.28842	278.05328	-339.34085	477.02957	396.50647	-415.47937	395.93784	260.75366	-418.29376	353.37259	251.69919	-353.74716	389.19104	256.73477	-363.94321	346.06027	247.83856	-403.37598	84.68748	288.38489	-383.23108	103.75648	379.10193	-464.02869	57.66988	331.63681	-280.93195	36.05042	263.36115	-224.80157	59.40472	326.32910	-260.54330	39.11149	381.44348	-432.25836	1029.58606	526.35736	-274.25009	1006.81842	582.67322	-343.16260	642.69580	654.32819	-343.18695	595.80762	648.90552	-283.78708	638.13434	640.85052	-291.80768	591.93420	640.28369	-338.34274	497.94150	626.23859	-355.38840	474.41193	510.23251	-426.71808	398.94339	651.20447	-428.15662	355.75409	658.15759	-365.07019	388.53082	653.02759	-376.57581	348.24149	660.71149	-416.48132	84.17595	617.60114	-387.92154	102.89998	529.55664	-477.25903	57.97406	572.73804	-273.61435	37.82980	535.03552	-239.47984	55.93496	588.45630	-299.53369	30.94666	653.97137
